<svg width="1237" height="52" viewBox="0 0 1237 52" fill="none" xmlns="http://www.w3.org/2000/svg">
<g opacity="0.8">
<g clip-path="url(#clip0_571_691)">
<path d="M246.447 26.0828C246.002 26.5374 245.661 27.086 245.449 27.6896C245.236 28.2932 245.158 28.9369 245.218 29.5749L245.197 29.5534C245.26 30.3043 245.16 31.06 244.905 31.7677C244.65 32.4755 244.246 33.1182 243.721 33.6511C243.197 34.184 242.564 34.5942 241.867 34.853C241.17 35.1118 240.425 35.213 239.686 35.1497L239.707 35.1711C238.822 35.0875 237.934 35.2829 237.163 35.7308C236.391 36.1787 235.775 36.8573 235.398 37.6739C235.02 38.4905 234.9 39.4056 235.053 40.2941C235.207 41.1827 235.626 42.0016 236.255 42.6393C236.883 43.2768 237.69 43.7021 238.565 43.857C239.44 44.012 240.341 43.8889 241.145 43.5049C241.949 43.1209 242.617 42.4943 243.057 41.7109C243.498 40.9273 243.689 40.025 243.606 39.1269L243.629 39.1483C243.566 38.3974 243.666 37.6417 243.921 36.9339C244.176 36.2262 244.58 35.5834 245.104 35.0506C245.629 34.5177 246.262 34.1076 246.959 33.8488C247.656 33.5899 248.401 33.4887 249.14 33.5521L249.118 33.5306C249.84 33.5966 250.568 33.4763 251.232 33.1808C251.897 32.8854 252.477 32.4244 252.92 31.8405C253.362 31.2567 253.652 30.5689 253.763 29.8408C253.874 29.1128 253.803 28.368 253.555 27.6757C253.307 26.9833 252.891 26.3657 252.345 25.8802C251.799 25.3946 251.142 25.0568 250.433 24.8979C249.725 24.739 248.988 24.7643 248.292 24.9715C247.596 25.1786 246.962 25.5609 246.45 26.0828H246.447Z" fill="#282938"/>
<path d="M237.785 32.3597L237.762 32.3383C238.391 32.4026 239.026 32.3243 239.621 32.1089C240.216 31.8937 240.756 31.5468 241.203 31.0933C241.65 30.6399 241.992 30.0913 242.205 29.4873C242.417 28.8832 242.495 28.2387 242.432 27.6004L242.454 27.6219C242.392 26.871 242.492 26.1152 242.746 25.4076C243.001 24.6998 243.405 24.0571 243.93 23.5242C244.455 22.9913 245.088 22.5811 245.785 22.3223C246.482 22.0635 247.226 21.9622 247.966 22.0256L247.943 22.0042C248.828 22.0885 249.717 21.8937 250.488 21.4463C251.26 20.9989 251.877 20.3207 252.255 19.5042C252.633 18.6877 252.754 17.7726 252.601 16.8838C252.448 15.995 252.029 15.1758 251.401 14.5377C250.772 13.8998 249.966 13.4741 249.09 13.3188C248.215 13.1636 247.314 13.2863 246.51 13.6702C245.705 14.0541 245.037 14.6805 244.597 15.4641C244.156 16.2476 243.964 17.1501 244.048 18.0484L244.026 18.0257C244.089 18.7767 243.989 19.5325 243.735 20.2403C243.48 20.9482 243.076 21.591 242.551 22.1239C242.026 22.6569 241.393 23.067 240.696 23.3258C239.999 23.5845 239.255 23.6856 238.515 23.622L238.536 23.6446C237.908 23.5804 237.273 23.6587 236.678 23.874C236.083 24.0892 235.542 24.4362 235.095 24.8896C234.648 25.343 234.306 25.8916 234.094 26.4956C233.881 27.0998 233.804 27.7442 233.867 28.3825L233.845 28.3611C233.908 29.1119 233.808 29.8675 233.553 30.5752C233.298 31.2828 232.894 31.9255 232.369 32.4583C231.844 32.9912 231.211 33.4013 230.515 33.6602C229.818 33.9191 229.073 34.0205 228.334 33.9573L228.355 33.9788C227.47 33.8944 226.582 34.0892 225.81 34.5366C225.038 34.984 224.421 35.6622 224.043 36.4787C223.665 37.2953 223.544 38.2103 223.697 39.0991C223.85 39.9879 224.269 40.8072 224.898 41.4452C225.526 42.0832 226.333 42.5088 227.208 42.6641C228.084 42.8193 228.985 42.6967 229.789 42.3128C230.593 41.9289 231.261 41.3024 231.701 40.5189C232.142 39.7354 232.334 38.8329 232.251 37.9345L232.273 37.956C232.211 37.2051 232.311 36.4493 232.565 35.7417C232.82 35.0339 233.224 34.3912 233.749 33.8583C234.274 33.3254 234.907 32.9152 235.604 32.6564C236.301 32.3976 237.045 32.2964 237.785 32.3597Z" fill="#282938"/>
<path d="M229.914 29.9671C230.36 29.5126 230.7 28.964 230.912 28.3603C231.124 27.7567 231.203 27.113 231.141 26.4751L231.164 26.4965C231.101 25.7454 231.201 24.9895 231.456 24.2816C231.711 23.5736 232.115 22.9308 232.64 22.3978C233.165 21.8649 233.799 21.4548 234.496 21.1962C235.193 20.9375 235.938 20.8365 236.678 20.9003L236.655 20.8788C237.54 20.9629 238.428 20.768 239.199 20.3207C239.971 19.8733 240.587 19.1953 240.965 18.379C241.343 17.5628 241.464 16.648 241.311 15.7595C241.158 14.8711 240.739 14.0521 240.111 13.4144C239.483 12.7766 238.676 12.3511 237.801 12.1958C236.926 12.0406 236.025 12.1631 235.221 12.5468C234.417 12.9305 233.75 13.5566 233.309 14.3398C232.869 15.1229 232.677 16.025 232.759 16.923L232.738 16.9016C232.801 17.6525 232.701 18.4082 232.446 19.116C232.191 19.8237 231.787 20.4664 231.262 20.9993C230.738 21.5322 230.105 21.9424 229.408 22.2012C228.711 22.46 227.966 22.5613 227.227 22.4978L227.248 22.5193C226.525 22.4535 225.798 22.574 225.134 22.8696C224.469 23.1651 223.889 23.6262 223.446 24.2102C223.004 24.7941 222.714 25.4819 222.603 26.2099C222.492 26.938 222.564 27.6827 222.813 28.3749C223.061 29.0672 223.477 29.6847 224.022 30.1701C224.568 30.6557 225.226 30.9935 225.934 31.1522C226.642 31.311 227.379 31.2856 228.075 31.0784C228.771 30.8713 229.405 30.489 229.917 29.9671H229.914Z" fill="#282938"/>
<path d="M266.285 18.0762H269.772V35.3073H266.285V18.0762Z" fill="#282938"/>
<path d="M271.748 29.4075C271.743 28.1692 272.1 26.9574 272.774 25.9254C273.448 24.8934 274.409 24.0876 275.534 23.6104C276.659 23.133 277.899 23.0056 279.096 23.2442C280.292 23.4827 281.392 24.0764 282.256 24.9503C283.12 25.8241 283.71 26.9387 283.949 28.1529C284.189 29.367 284.069 30.6261 283.603 31.7706C283.137 32.9151 282.348 33.8936 281.334 34.582C280.32 35.2705 279.128 35.638 277.909 35.638C277.099 35.6474 276.296 35.4929 275.546 35.1834C274.796 34.8739 274.114 34.4157 273.541 33.8356C272.967 33.2555 272.513 32.5652 272.205 31.8048C271.898 31.0445 271.742 30.2296 271.748 29.4075ZM280.582 29.4075C280.568 28.8738 280.399 28.3563 280.096 27.9195C279.793 27.4829 279.371 27.1466 278.881 26.9525C278.391 26.7584 277.856 26.7153 277.342 26.8285C276.828 26.9418 276.358 27.2063 275.991 27.589C275.625 27.9718 275.377 28.4558 275.28 28.9805C275.183 29.5053 275.24 30.0475 275.445 30.5394C275.649 31.0313 275.992 31.451 276.431 31.7461C276.869 32.0411 277.383 32.1986 277.909 32.1985C278.269 32.2083 278.627 32.1422 278.961 32.0043C279.295 31.8666 279.597 31.66 279.848 31.3978C280.099 31.1355 280.294 30.8234 280.42 30.4808C280.547 30.1383 280.602 29.7728 280.582 29.4075Z" fill="#282938"/>
<path d="M297.969 23.5059V34.7127C297.969 38.6781 294.923 40.3543 291.832 40.3543C290.743 40.4371 289.653 40.2138 288.681 39.7091C287.71 39.2043 286.893 38.4376 286.322 37.493L289.298 35.7464C289.538 36.2388 289.92 36.6451 290.394 36.9107C290.867 37.1764 291.409 37.2888 291.948 37.2331C292.292 37.2815 292.642 37.2507 292.973 37.143C293.304 37.0355 293.606 36.8536 293.858 36.6112C294.111 36.3687 294.306 36.0718 294.43 35.7424C294.554 35.413 294.603 35.0594 294.574 34.7079V33.6291C294.166 34.1364 293.646 34.5395 293.057 34.8059C292.467 35.0724 291.824 35.1948 291.18 35.1634C289.646 35.1143 288.192 34.4612 287.124 33.3422C286.056 32.2233 285.459 30.7264 285.459 29.1684C285.459 27.6103 286.056 26.1134 287.124 24.9944C288.192 23.8756 289.646 23.2224 291.18 23.1733C291.824 23.1419 292.467 23.2644 293.057 23.5308C293.646 23.7973 294.166 24.2004 294.574 24.7077V23.5035L297.969 23.5059ZM294.576 29.1702C294.599 28.5995 294.454 28.0348 294.158 27.5487C293.863 27.0626 293.431 26.6774 292.918 26.4425C292.406 26.2078 291.835 26.1342 291.281 26.2312C290.727 26.3283 290.214 26.5915 289.808 26.9871C289.402 27.3828 289.123 27.8926 289.005 28.451C288.887 29.0095 288.936 29.591 289.146 30.1207C289.357 30.6504 289.718 31.1041 290.185 31.4234C290.651 31.7427 291.201 31.9129 291.763 31.9123C292.13 31.9382 292.498 31.8859 292.843 31.7589C293.188 31.6318 293.503 31.4326 293.768 31.1744C294.033 30.916 294.242 30.6042 294.381 30.259C294.52 29.9139 294.586 29.543 294.576 29.1702Z" fill="#282938"/>
<path d="M299.944 29.4075C299.939 28.1692 300.296 26.9574 300.97 25.9254C301.644 24.8934 302.604 24.0876 303.73 23.6104C304.855 23.133 306.094 23.0056 307.291 23.2442C308.488 23.4827 309.588 24.0764 310.452 24.9503C311.316 25.8241 311.905 26.9387 312.145 28.1529C312.385 29.367 312.264 30.6261 311.798 31.7706C311.333 32.9151 310.543 33.8936 309.53 34.582C308.516 35.2705 307.324 35.638 306.104 35.638C305.295 35.6474 304.492 35.4929 303.742 35.1834C302.992 34.8739 302.31 34.4157 301.736 33.8356C301.163 33.2555 300.709 32.5652 300.401 31.8048C300.093 31.0445 299.938 30.2296 299.944 29.4075ZM308.778 29.4075C308.763 28.8738 308.594 28.3563 308.291 27.9195C307.989 27.4829 307.566 27.1466 307.076 26.9525C306.586 26.7584 306.051 26.7153 305.537 26.8285C305.023 26.9418 304.553 27.2063 304.187 27.589C303.82 27.9718 303.573 28.4558 303.476 28.9805C303.378 29.5053 303.436 30.0475 303.64 30.5394C303.845 31.0313 304.188 31.451 304.626 31.7461C305.064 32.0411 305.578 32.1986 306.104 32.1985C306.464 32.2083 306.823 32.1422 307.156 32.0043C307.49 31.8666 307.792 31.66 308.043 31.3978C308.294 31.1355 308.489 30.8234 308.616 30.4808C308.742 30.1383 308.797 29.7728 308.778 29.4075Z" fill="#282938"/>
<path d="M313.891 20.3423C313.891 19.9221 314.013 19.5114 314.243 19.162C314.473 18.8126 314.8 18.5403 315.183 18.3795C315.565 18.2187 315.985 18.1766 316.391 18.2586C316.797 18.3406 317.17 18.5429 317.463 18.84C317.755 19.1372 317.955 19.5157 318.035 19.9278C318.116 20.3399 318.075 20.7671 317.916 21.1553C317.757 21.5436 317.49 21.8753 317.145 22.1087C316.801 22.3422 316.396 22.4669 315.983 22.4669C315.43 22.4612 314.901 22.2356 314.51 21.8384C314.118 21.4412 313.896 20.904 313.891 20.3423ZM314.243 23.5053H317.731V35.3082H314.238L314.243 23.5053Z" fill="#282938"/>
<path d="M332.789 29.4072C332.829 30.1873 332.718 30.9677 332.46 31.7036C332.202 32.4396 331.803 33.1166 331.287 33.6956C330.771 34.2746 330.146 34.7443 329.452 35.0775C328.756 35.4109 328.001 35.6012 327.233 35.6377C326.587 35.6735 325.941 35.5629 325.342 35.3138C324.744 35.0646 324.206 34.6834 323.771 34.1975V40.0287H320.283V23.5058H323.771V24.6145C324.207 24.129 324.744 23.748 325.343 23.4992C325.941 23.2502 326.587 23.1398 327.233 23.1755C328.001 23.2118 328.756 23.4022 329.452 23.7354C330.147 24.0688 330.772 24.5385 331.288 25.1177C331.804 25.6969 332.203 26.3741 332.461 27.1102C332.719 27.8464 332.83 28.627 332.789 29.4072ZM329.302 29.4072C329.289 28.8549 329.115 28.3188 328.802 27.8662C328.491 27.4136 328.053 27.0646 327.547 26.8628C327.04 26.6609 326.486 26.6153 325.955 26.7316C325.423 26.8479 324.936 27.1209 324.556 27.5165C324.176 27.9121 323.919 28.4127 323.818 28.9557C323.718 29.4986 323.776 30.0598 323.987 30.5689C324.199 31.078 324.554 31.5126 325.007 31.8181C325.461 32.1236 325.993 32.2865 326.537 32.2864C326.91 32.3033 327.283 32.2398 327.631 32.1001C327.979 31.9604 328.293 31.7477 328.555 31.4758C328.816 31.2039 329.017 30.8791 329.146 30.5226C329.275 30.1661 329.328 29.7861 329.302 29.4072Z" fill="#282938"/>
<path d="M343.548 31.7666C343.548 34.4812 341.225 35.6377 338.715 35.6377C337.701 35.731 336.682 35.5132 335.791 35.0124C334.9 34.5117 334.177 33.7511 333.717 32.8288L336.737 31.0823C336.86 31.5085 337.122 31.8793 337.481 32.1328C337.841 32.3862 338.274 32.5069 338.71 32.4747C339.547 32.4747 339.965 32.2149 339.965 31.7439C339.965 30.4444 334.246 31.13 334.246 27.0466C334.246 24.4726 336.386 23.1754 338.803 23.1754C339.712 23.1463 340.612 23.3652 341.409 23.8093C342.206 24.2535 342.871 24.9065 343.335 25.7006L340.36 27.3291C340.229 27.0199 340.012 26.7567 339.735 26.572C339.458 26.3874 339.134 26.2895 338.803 26.2907C338.199 26.2907 337.826 26.5291 337.826 26.9512C337.83 28.2972 343.548 27.3995 343.548 31.7666Z" fill="#282938"/>
<path d="M356.289 23.5054V35.3083H352.802V34.1984C352.4 34.6881 351.889 35.074 351.312 35.3244C350.734 35.5747 350.106 35.6824 349.479 35.6385C347.131 35.6385 345.135 33.9396 345.135 30.7505V23.5054H348.622V30.2319C348.593 30.513 348.624 30.7971 348.714 31.0646C348.805 31.3321 348.951 31.5765 349.143 31.7808C349.336 31.985 349.569 32.1442 349.829 32.2473C350.088 32.3505 350.366 32.395 350.644 32.3778C351.923 32.3778 352.805 31.6232 352.805 29.947V23.5089L356.289 23.5054Z" fill="#282938"/>
<path d="M376.283 28.0612V35.3075H372.796V28.3676C372.796 27.1873 372.237 26.4327 371.122 26.4327C369.96 26.4327 369.308 27.2588 369.308 28.6514V35.3075H365.823V28.3676C365.823 27.1873 365.264 26.4327 364.148 26.4327C362.985 26.4327 362.335 27.2588 362.335 28.6514V35.3075H358.848V23.5046H362.335V24.5895C362.697 24.1082 363.171 23.7265 363.716 23.4793C364.26 23.2321 364.856 23.1273 365.45 23.1743C366.047 23.1447 366.641 23.2726 367.174 23.5454C367.708 23.8183 368.163 24.2269 368.495 24.7314C368.881 24.2036 369.393 23.7839 369.983 23.5116C370.572 23.2394 371.22 23.1233 371.865 23.1743C374.534 23.1755 376.283 25.1105 376.283 28.0612Z" fill="#282938"/>
<path d="M379.234 23.4325C380.663 23.4325 381.822 22.2561 381.822 20.8049C381.822 19.3537 380.663 18.1772 379.234 18.1772C377.806 18.1772 376.646 19.3537 376.646 20.8049C376.646 22.2561 377.806 23.4325 379.234 23.4325Z" fill="#282938"/>
</g>
<g clip-path="url(#clip1_571_691)">
<path d="M489.934 19.8062H493.053V34.968H489.934V19.8062Z" fill="#282938"/>
<path d="M494.797 29.7737C494.797 28.6828 495.118 27.6166 495.719 26.71C496.321 25.8035 497.175 25.0974 498.174 24.6814C499.173 24.2654 500.272 24.1582 501.332 24.3733C502.391 24.5885 503.364 25.1162 504.126 25.8898C504.888 26.6633 505.405 27.6478 505.612 28.7184C505.82 29.7891 505.707 30.8976 505.289 31.9037C504.871 32.9097 504.167 33.7678 503.265 34.3693C502.363 34.9708 501.305 35.2886 500.224 35.2824C499.507 35.288 498.797 35.1491 498.134 34.8739C497.471 34.5987 496.869 34.1926 496.363 33.6796C495.858 33.1665 495.459 32.5567 495.19 31.886C494.921 31.2153 494.788 30.4971 494.797 29.7737ZM502.615 29.7737C502.603 29.3035 502.454 28.8473 502.186 28.4622C501.918 28.0771 501.544 27.7803 501.11 27.6089C500.676 27.4374 500.201 27.399 499.746 27.4982C499.29 27.5975 498.873 27.8302 498.548 28.1671C498.223 28.5041 498.003 28.9304 497.917 29.3926C497.83 29.8548 497.881 30.3326 498.062 30.7661C498.243 31.1996 498.547 31.5696 498.935 31.8297C499.323 32.09 499.779 32.2288 500.245 32.229C500.562 32.2352 500.878 32.1753 501.171 32.0531C501.464 31.9307 501.73 31.7488 501.95 31.5183C502.171 31.2879 502.342 31.014 502.453 30.7138C502.564 30.4136 502.612 30.0936 502.595 29.7737H502.615Z" fill="#282938"/>
<path d="M517.993 24.5802V34.4538C517.993 37.9374 515.289 39.4168 512.555 39.4168C511.591 39.4967 510.623 39.3034 509.762 38.8585C508.9 38.4135 508.179 37.7348 507.679 36.8986L510.31 35.3667C510.523 35.8004 510.862 36.1582 511.282 36.3926C511.701 36.6269 512.182 36.7265 512.659 36.6783C512.963 36.716 513.272 36.6856 513.563 36.589C513.854 36.4924 514.12 36.3322 514.343 36.1196C514.565 35.9071 514.738 35.6476 514.85 35.3596C514.961 35.0716 515.009 34.7623 514.988 34.4538V33.499C514.625 33.9431 514.164 34.2958 513.643 34.5289C513.121 34.762 512.553 34.8692 511.983 34.8421C510.605 34.8421 509.283 34.2893 508.308 33.3054C507.333 32.3215 506.785 30.9871 506.785 29.5957C506.785 28.2043 507.333 26.8699 508.308 25.886C509.283 24.9021 510.605 24.3493 511.983 24.3493C512.553 24.3222 513.121 24.4294 513.643 24.6625C514.164 24.8956 514.625 25.2483 514.988 25.6924V24.6432L517.993 24.5802ZM514.988 29.5642C515.009 29.0622 514.88 28.5655 514.619 28.1377C514.358 27.7101 513.976 27.371 513.522 27.1642C513.068 26.9574 512.564 26.8924 512.073 26.9774C511.582 27.0624 511.128 27.2935 510.769 27.6412C510.409 27.9888 510.161 28.437 510.056 28.9281C509.951 29.4193 509.994 29.9309 510.179 30.3972C510.365 30.8635 510.684 31.2631 511.096 31.5447C511.509 31.8263 511.995 31.9771 512.493 31.9776C512.818 32.0011 513.144 31.9557 513.45 31.8442C513.757 31.7327 514.036 31.5576 514.271 31.3302C514.507 31.1027 514.692 30.8281 514.815 30.5239C514.939 30.2197 514.998 29.8928 514.988 29.5642Z" fill="#282938"/>
<path d="M519.75 29.7738C519.75 28.6838 520.071 27.6184 520.671 26.7123C521.271 25.8061 522.124 25.1001 523.122 24.6835C524.12 24.2668 525.218 24.1583 526.277 24.3718C527.336 24.5852 528.309 25.1109 529.072 25.8823C529.835 26.6538 530.354 27.6363 530.563 28.7055C530.772 29.7748 530.663 30.8827 530.248 31.8891C529.833 32.8955 529.132 33.7551 528.233 34.3591C527.334 34.9632 526.278 35.2845 525.198 35.2825C524.48 35.2894 523.767 35.1517 523.103 34.8772C522.438 34.6027 521.834 34.1971 521.327 33.684C520.819 33.1709 520.418 32.5608 520.148 31.8893C519.877 31.2179 519.742 30.4986 519.75 29.7738ZM527.568 29.7738C527.556 29.303 527.407 28.8464 527.138 28.4612C526.87 28.076 526.495 27.7791 526.06 27.608C525.626 27.4369 525.151 27.399 524.695 27.4991C524.239 27.5993 523.822 27.833 523.497 28.171C523.173 28.509 522.954 28.9362 522.869 29.3991C522.783 29.8621 522.835 30.3402 523.018 30.7735C523.2 31.2067 523.506 31.576 523.895 31.8349C524.285 32.0939 524.742 32.231 525.208 32.2291C525.526 32.2353 525.841 32.1754 526.134 32.0532C526.428 31.9308 526.693 31.7488 526.914 31.5183C527.134 31.2879 527.305 31.0141 527.416 30.7139C527.527 30.4137 527.575 30.0937 527.558 29.7738H527.568Z" fill="#282938"/>
<path d="M532.09 21.7998C532.09 21.4304 532.198 21.0694 532.402 20.7622C532.605 20.455 532.894 20.2156 533.232 20.0743C533.57 19.9329 533.942 19.896 534.301 19.968C534.66 20.0401 534.99 20.218 535.249 20.4792C535.508 20.7403 535.684 21.0731 535.755 21.4355C535.827 21.7977 535.79 22.1733 535.65 22.5145C535.51 22.8559 535.273 23.1476 534.969 23.3528C534.664 23.558 534.306 23.6675 533.94 23.6675C533.451 23.6621 532.984 23.4635 532.638 23.1144C532.292 22.7654 532.095 22.2935 532.09 21.7998ZM532.391 24.5804H535.51V34.9681H532.391V24.5804Z" fill="#282938"/>
<path d="M548.859 29.7733C548.894 30.4642 548.794 31.1552 548.563 31.8065C548.332 32.4579 547.976 33.0569 547.515 33.5688C547.054 34.0808 546.497 34.4958 545.877 34.7898C545.257 35.0838 544.585 35.2511 543.9 35.282C543.319 35.321 542.737 35.2271 542.197 35.0073C541.657 34.7874 541.173 34.4474 540.781 34.0124V39.1433H537.662V24.5795H540.781V25.5553C541.173 25.1217 541.658 24.7831 542.198 24.565C542.737 24.347 543.32 24.2551 543.9 24.2961C544.582 24.3272 545.251 24.4934 545.87 24.7855C546.488 25.0775 547.043 25.4896 547.503 25.9982C547.964 26.5068 548.321 27.102 548.553 27.7497C548.786 28.3975 548.889 29.0851 548.859 29.7733ZM545.74 29.7733C545.728 29.286 545.573 28.8131 545.296 28.4141C545.018 28.015 544.631 27.7075 544.181 27.53C543.73 27.3526 543.239 27.313 542.767 27.4164C542.295 27.5198 541.863 27.7615 541.527 28.1112C541.191 28.461 540.964 28.9032 540.875 29.3823C540.787 29.8616 540.84 30.3565 541.029 30.8052C541.219 31.2538 541.534 31.6361 541.938 31.9043C542.341 32.1725 542.814 32.3144 543.297 32.3126C543.628 32.3267 543.958 32.2701 544.265 32.1466C544.573 32.023 544.851 31.8351 545.082 31.5953C545.313 31.3556 545.491 31.0693 545.604 30.7553C545.717 30.4414 545.764 30.1067 545.74 29.7733Z" fill="#282938"/>
<path d="M558.351 31.8517C558.351 34.2441 556.272 35.2619 554.068 35.2619C553.169 35.3435 552.266 35.1512 551.476 34.7098C550.687 34.2683 550.047 33.5981 549.639 32.7856L552.321 31.2537C552.427 31.6281 552.658 31.9543 552.974 32.1777C553.29 32.4012 553.672 32.5084 554.057 32.4813C554.795 32.4813 555.17 32.2505 555.17 31.8307C555.17 30.6871 550.106 31.2957 550.106 27.6967C550.106 25.4302 551.999 24.297 554.141 24.297C554.955 24.2603 555.764 24.4466 556.481 24.8364C557.198 25.2263 557.798 25.8049 558.216 26.511L555.533 27.938C555.415 27.6673 555.221 27.4371 554.976 27.275C554.73 27.113 554.444 27.0262 554.151 27.0252C553.611 27.0252 553.288 27.235 553.288 27.6022C553.288 28.7984 558.351 28.0114 558.351 31.8517Z" fill="#282938"/>
<path d="M569.652 24.5801V34.9679H566.533V33.992C566.179 34.4239 565.729 34.7658 565.219 34.99C564.711 35.2142 564.156 35.3144 563.601 35.2826C561.522 35.2826 559.744 33.7822 559.744 30.9807V24.5801H562.863V30.5084C562.839 30.7563 562.868 31.0066 562.948 31.242C563.029 31.4774 563.16 31.6923 563.33 31.8718C563.501 32.0514 563.709 32.1914 563.939 32.2821C564.169 32.3728 564.416 32.412 564.661 32.3971C565.785 32.3971 566.574 31.7256 566.574 30.2986V24.5801H569.652Z" fill="#282938"/>
<path d="M587.326 28.5883V34.9679H584.207V28.8612C584.207 27.8119 583.718 27.1614 582.73 27.1614C581.742 27.1614 581.119 27.8853 581.119 29.113V34.9679H578V28.8612C578 27.8119 577.512 27.1614 576.523 27.1614C575.536 27.1614 574.912 27.8853 574.912 29.113V34.9679H571.793V24.5801H574.912V25.535C575.235 25.1131 575.657 24.7791 576.14 24.5629C576.623 24.3468 577.151 24.2553 577.678 24.2968C578.205 24.2691 578.731 24.3802 579.203 24.6193C579.674 24.8585 580.077 25.2174 580.37 25.6609C580.712 25.1976 581.166 24.8295 581.688 24.5909C582.21 24.3524 582.783 24.2512 583.354 24.2968C585.787 24.2968 587.326 25.9967 587.326 28.5883Z" fill="#282938"/>
<path d="M471.355 17.078V12.6187H457.424V43.2572H471.355V38.7978C468.501 38.7978 465.764 37.6537 463.746 35.617C461.728 33.5804 460.595 30.8182 460.595 27.9379C460.595 25.0577 461.728 22.2954 463.746 20.2589C465.764 18.2222 468.501 17.078 471.355 17.078Z" fill="#282938"/>
<path d="M471.354 17.0776V38.7974C474.207 38.7974 476.944 37.6533 478.962 35.6166C480.98 33.5801 482.114 30.8178 482.114 27.9375C482.114 25.0573 480.98 22.295 478.962 20.2585C476.944 18.2218 474.207 17.0776 471.354 17.0776Z" fill="#282938"/>
<path d="M589.946 24.5177C591.209 24.5177 592.233 23.4841 592.233 22.2093C592.233 20.9344 591.209 19.9009 589.946 19.9009C588.682 19.9009 587.658 20.9344 587.658 22.2093C587.658 23.4841 588.682 24.5177 589.946 24.5177Z" fill="#282938"/>
</g>
<g clip-path="url(#clip2_571_691)">
<path d="M705.303 21.3468H708.684V35.0049H705.303V21.3468ZM710.025 29.8479C710.025 26.47 712.099 24.4545 715.3 24.4545C718.5 24.4545 720.574 26.47 720.574 29.8479C720.574 33.2259 718.546 35.2527 715.3 35.2527C712.054 35.2527 710.025 33.2822 710.025 29.8479ZM717.182 29.8479C717.182 27.9901 716.449 26.8979 715.3 26.8979C714.15 26.8979 713.429 28.0239 713.429 29.8479C713.429 31.672 714.139 32.7755 715.3 32.7755C716.46 32.7755 717.182 31.7396 717.182 29.8592V29.8479ZM721.848 35.6693H725.094C725.248 36.0121 725.509 36.296 725.838 36.4786C726.167 36.6612 726.547 36.7328 726.92 36.6826C728.204 36.6826 728.881 35.9846 728.881 34.9712V33.0795H728.813C728.544 33.6593 728.106 34.1451 727.558 34.4743C727.01 34.8034 726.375 34.9608 725.736 34.9262C723.268 34.9262 721.634 33.0457 721.634 29.8142C721.634 26.5826 723.189 24.5446 725.781 24.5446C726.44 24.5188 727.091 24.6948 727.647 25.0489C728.203 25.4032 728.637 25.9186 728.892 26.5263V24.6459H732.273V34.8923C732.273 37.3583 730.098 38.8896 726.886 38.8896C723.899 38.8896 722.039 37.5496 721.848 35.6806V35.6693ZM728.892 29.8367C728.892 28.1928 728.137 27.1568 726.942 27.1568C725.747 27.1568 725.015 28.1815 725.015 29.8367C725.015 31.4919 725.736 32.4264 726.942 32.4264C728.148 32.4264 728.892 31.5144 728.892 29.8479V29.8367ZM733.547 29.8367C733.547 26.4587 735.62 24.4432 738.821 24.4432C742.022 24.4432 744.107 26.4587 744.107 29.8367C744.107 33.2146 742.078 35.2414 738.821 35.2414C735.564 35.2414 733.547 33.2822 733.547 29.8479V29.8367ZM740.703 29.8367C740.703 27.9788 739.971 26.8866 738.821 26.8866C737.672 26.8866 737.007 28.0239 737.007 29.8592C737.007 31.6945 737.717 32.7868 738.866 32.7868C740.016 32.7868 740.703 31.7396 740.703 29.8592V29.8367ZM745.392 22.1912C745.383 21.8503 745.476 21.5143 745.658 21.2259C745.841 20.9376 746.105 20.7098 746.417 20.5716C746.729 20.4333 747.076 20.3908 747.412 20.4494C747.748 20.5081 748.06 20.6651 748.307 20.9008C748.554 21.1364 748.725 21.44 748.799 21.7731C748.873 22.1061 748.847 22.4536 748.723 22.7716C748.599 23.0895 748.383 23.3635 748.103 23.5589C747.823 23.7543 747.492 23.8622 747.15 23.869C746.924 23.8845 746.697 23.8531 746.483 23.7768C746.269 23.7005 746.074 23.5808 745.909 23.4254C745.744 23.2699 745.613 23.0821 745.524 22.8736C745.435 22.665 745.39 22.4404 745.392 22.2138V22.1912ZM745.392 24.6684H748.773V35.0049H745.392V24.6684ZM761.047 29.8367C761.047 33.2146 759.548 35.14 756.978 35.14C756.319 35.1824 755.663 35.0214 755.099 34.6791C754.534 34.3368 754.089 33.8295 753.822 33.2259H753.755V38.3153H750.373V24.6459H753.755V26.4925H753.822C754.076 25.879 754.513 25.3585 755.074 25.0019C755.635 24.6454 756.292 24.4699 756.955 24.4995C759.548 24.5446 761.091 26.4813 761.091 29.8592L761.047 29.8367ZM757.666 29.8367C757.666 28.1928 756.91 27.1456 755.727 27.1456C754.544 27.1456 753.788 28.204 753.777 29.8367C753.766 31.4694 754.544 32.5166 755.727 32.5166C756.91 32.5166 757.666 31.4919 757.666 29.8592V29.8367ZM766.851 24.432C769.657 24.432 771.359 25.7607 771.438 27.8888H768.361C768.361 27.1568 767.753 26.6952 766.817 26.6952C765.881 26.6952 765.465 27.0555 765.465 27.5848C765.465 28.1139 765.837 28.2828 766.592 28.4405L768.755 28.8796C770.819 29.3187 771.697 30.152 771.697 31.7171C771.697 33.8565 769.747 35.2302 766.873 35.2302C763.999 35.2302 762.117 33.8565 761.971 31.7509H765.228C765.33 32.5166 765.938 32.9669 766.93 32.9669C767.921 32.9669 768.373 32.6404 768.373 32.1C768.373 31.5594 768.057 31.4469 767.246 31.2779L765.296 30.8614C763.278 30.4448 762.219 29.3751 762.219 27.7987C762.242 25.7719 764.056 24.4545 766.851 24.4545V24.432ZM782.979 34.9824H779.721V33.057H779.654C779.475 33.7034 779.08 34.2693 778.535 34.6605C777.99 35.0517 777.327 35.2448 776.656 35.2076C776.142 35.2368 775.629 35.1555 775.149 34.9692C774.67 34.7828 774.235 34.4959 773.877 34.1276C773.518 33.7593 773.242 33.3184 773.068 32.8345C772.894 32.3507 772.827 31.8352 772.869 31.323V24.6459H776.251V30.5461C776.251 31.7734 776.882 32.4264 777.93 32.4264C778.176 32.427 778.419 32.375 778.642 32.2739C778.867 32.1729 779.067 32.0253 779.229 31.8408C779.391 31.6563 779.512 31.4393 779.583 31.2044C779.655 30.9695 779.675 30.7219 779.643 30.4785V24.6459H783.025L782.979 34.9824ZM784.613 24.6459H787.882V26.6389H787.949C788.129 26.001 788.515 25.4406 789.047 25.0453C789.579 24.65 790.228 24.4423 790.891 24.4545C791.566 24.4006 792.236 24.6023 792.769 25.0195C793.301 25.4368 793.657 26.0391 793.765 26.7064H793.833C794.037 26.032 794.46 25.4446 795.036 25.0368C795.612 24.6291 796.306 24.4242 797.011 24.4545C797.47 24.4391 797.929 24.5205 798.355 24.6934C798.781 24.8663 799.166 25.1269 799.485 25.4582C799.804 25.7896 800.05 26.1842 800.206 26.6165C800.362 27.0488 800.425 27.5091 800.392 27.9676V35.0049H797.011V28.8683C797.011 27.7424 796.503 27.2244 795.557 27.2244C795.346 27.2226 795.136 27.2661 794.944 27.3519C794.751 27.4377 794.579 27.5638 794.439 27.7217C794.299 27.8797 794.195 28.0658 794.133 28.2675C794.071 28.4691 794.053 28.6817 794.08 28.8909V35.0049H790.869V28.8233C790.869 27.7874 790.362 27.2244 789.437 27.2244C789.224 27.2245 789.013 27.2698 788.818 27.3573C788.624 27.4448 788.449 27.5727 788.307 27.7322C788.166 27.8919 788.06 28.0796 787.996 28.2832C787.933 28.4868 787.913 28.7016 787.938 28.9134V35.0049H784.557L784.613 24.6459Z" fill="#282938"/>
<path d="M695.847 21.9662C695.273 20.656 694.514 19.435 693.592 18.3406C692.23 16.6746 690.531 15.3155 688.605 14.3531C686.679 13.3906 684.571 12.8465 682.42 12.7565C680.269 12.6665 678.123 13.0327 676.123 13.8311C674.124 14.6294 672.316 15.8417 670.819 17.3882C669.323 18.9347 668.171 20.7803 667.44 22.8037C666.708 24.827 666.414 26.9821 666.577 29.1271C666.739 31.2721 667.354 33.3585 668.382 35.2488C669.41 37.1392 670.827 38.7907 672.539 40.0946C673.638 40.9479 674.852 41.6417 676.146 42.1551C677.959 42.8976 679.9 43.28 681.86 43.2811C685.905 43.2722 689.782 41.6612 692.641 38.8012C695.499 35.9413 697.106 32.0657 697.109 28.024C697.112 25.9393 696.682 23.8766 695.847 21.9662ZM681.849 15.8522C683.609 15.852 685.347 16.2363 686.943 16.9782C686.554 17.1461 686.145 17.2635 685.726 17.3272C684.347 17.5266 683.069 18.1662 682.084 19.1504C681.099 20.1346 680.459 21.4107 680.259 22.7883C680.172 23.5608 679.82 24.2795 679.264 24.8231C678.707 25.3667 677.98 25.7019 677.205 25.7721C675.826 25.9715 674.549 26.611 673.564 27.5952C672.579 28.5795 671.939 29.8556 671.739 31.2331C671.671 31.9677 671.358 32.658 670.849 33.1923C669.97 31.3382 669.576 29.2921 669.702 27.2446C669.827 25.1971 670.47 23.2147 671.569 21.4818C672.668 19.749 674.188 18.3221 675.987 17.3338C677.786 16.3456 679.807 15.8281 681.86 15.8297L681.849 15.8522ZM672.528 35.906C672.663 35.7821 672.798 35.6694 672.934 35.5343C673.936 34.5631 674.58 33.2811 674.759 31.8974C674.832 31.1197 675.18 30.3932 675.74 29.8481C676.279 29.2876 677.004 28.9432 677.78 28.8798C679.159 28.6804 680.436 28.0408 681.421 27.0566C682.406 26.0725 683.047 24.7963 683.246 23.4188C683.295 22.6053 683.644 21.8389 684.227 21.2682C684.779 20.7185 685.511 20.3866 686.289 20.3336C687.556 20.1595 688.737 19.5969 689.67 18.7234C690.733 19.6041 691.633 20.6634 692.33 21.8537C692.287 21.9115 692.238 21.9644 692.184 22.0113C691.646 22.5768 690.921 22.9287 690.144 23.0022C688.763 23.1981 687.484 23.8366 686.498 24.8214C685.513 25.8062 684.874 27.0843 684.677 28.4632C684.598 29.2383 684.253 29.9622 683.7 30.5122C683.148 31.0622 682.422 31.4044 681.646 31.4808C680.263 31.6787 678.981 32.317 677.99 33.3008C676.999 34.2846 676.352 35.5615 676.146 36.9418C676.085 37.4921 675.896 38.0206 675.593 38.4845C674.437 37.7985 673.401 36.9274 672.528 35.906ZM681.849 40.2522C680.705 40.2534 679.567 40.0942 678.467 39.7793C678.844 39.079 679.088 38.3157 679.189 37.5273C679.268 36.7539 679.611 36.0314 680.162 35.4816C680.712 34.9319 681.435 34.5886 682.209 34.5097C683.59 34.3126 684.87 33.674 685.857 32.6896C686.845 31.7052 687.487 30.4278 687.687 29.0487C687.766 28.2753 688.109 27.5527 688.66 27.003C689.21 26.4533 689.933 26.11 690.707 26.031C691.746 25.896 692.737 25.5095 693.592 24.9051C694.068 26.7043 694.124 28.5884 693.757 30.4126C693.39 32.237 692.61 33.9531 691.476 35.4294C690.342 36.9056 688.885 38.1029 687.216 38.9291C685.547 39.7553 683.711 40.1887 681.849 40.1959V40.2522Z" fill="#282938"/>
</g>
<g clip-path="url(#clip3_571_691)">
<path d="M923.372 37.4924C922.601 37.5342 921.839 37.3151 921.208 36.8707C920.944 36.6754 920.732 36.4189 920.59 36.1233C920.447 35.8276 920.379 35.5019 920.391 35.1741V23.1682C920.385 23.1173 920.39 23.0657 920.407 23.0173C920.424 22.9689 920.451 22.9249 920.487 22.8887C920.524 22.8525 920.568 22.825 920.616 22.8083C920.665 22.7917 920.716 22.7863 920.767 22.7926H922.945C923.191 22.7926 923.307 22.9221 923.307 23.1682V34.2416C923.307 34.7338 923.528 34.9798 923.981 34.9798C924.174 34.9878 924.366 34.9659 924.552 34.9151C924.811 34.9151 924.953 34.9928 924.966 35.2259L925.161 36.8448C925.17 36.892 925.169 36.9407 925.158 36.9875C925.147 37.0344 925.126 37.0782 925.097 37.1163C925.067 37.1543 925.03 37.1857 924.987 37.2081C924.945 37.2305 924.898 37.2436 924.85 37.2464C924.373 37.4038 923.874 37.4868 923.372 37.4924Z" fill="#282938"/>
<path d="M935.621 36.1067C934.527 37.01 933.152 37.5042 931.733 37.5042C930.314 37.5042 928.939 37.01 927.845 36.1067C926.883 35.1366 926.344 33.8263 926.344 32.4609C926.344 31.0954 926.883 29.7851 927.845 28.815C928.941 27.9164 930.315 27.4253 931.733 27.4253C933.151 27.4253 934.525 27.9164 935.621 28.815C936.561 29.7941 937.085 31.098 937.085 32.4545C937.085 33.8108 936.561 35.1147 935.621 36.0938V36.1067ZM929.893 34.3971C930.4 34.8567 931.061 35.1113 931.746 35.1113C932.431 35.1113 933.092 34.8567 933.599 34.3971C934.059 33.8692 934.312 33.1929 934.312 32.4933C934.312 31.7935 934.059 31.1174 933.599 30.5894C933.092 30.1298 932.431 29.8753 931.746 29.8753C931.061 29.8753 930.4 30.1298 929.893 30.5894C929.433 31.1174 929.18 31.7935 929.18 32.4933C929.18 33.1929 929.433 33.8692 929.893 34.3971Z" fill="#282938"/>
<path d="M949.075 27.7527C949.321 27.7527 949.438 27.8822 949.438 28.1283V37.4144C949.46 38.0412 949.343 38.6651 949.094 39.2409C948.845 39.8167 948.471 40.3297 947.999 40.7429C946.951 41.636 945.603 42.0987 944.227 42.0381C942.985 42.0818 941.758 41.7427 940.715 41.0668C940.269 40.7743 939.889 40.3935 939.597 39.9479C939.305 39.5024 939.107 39.0015 939.017 38.4765C939.017 38.2174 939.017 38.1009 939.367 38.1009H941.545C941.637 38.1041 941.727 38.1338 941.802 38.1867C941.878 38.2395 941.937 38.3132 941.972 38.3988C942.113 38.7922 942.395 39.1196 942.763 39.3183C943.211 39.5494 943.71 39.6652 944.214 39.655C944.519 39.6718 944.823 39.6276 945.11 39.5253C945.397 39.423 945.661 39.2646 945.886 39.0593C946.092 38.8445 946.252 38.5904 946.357 38.3121C946.461 38.0339 946.509 37.7373 946.496 37.4403V36.6244C945.716 37.1974 944.767 37.4937 943.8 37.4662C943.123 37.4909 942.448 37.3785 941.815 37.1359C941.183 36.8933 940.606 36.5256 940.119 36.0545C939.184 35.0885 938.662 33.7976 938.662 32.4541C938.662 31.1105 939.184 29.8196 940.119 28.8536C940.608 28.3868 941.186 28.0225 941.818 27.7823C942.45 27.5421 943.124 27.4307 943.8 27.4549C944.795 27.4286 945.769 27.744 946.56 28.3485V28.1412C946.554 28.0917 946.56 28.0413 946.576 27.9939C946.591 27.9466 946.618 27.9033 946.653 27.8674C946.687 27.8314 946.73 27.8036 946.776 27.786C946.823 27.7684 946.873 27.7615 946.923 27.7657L949.075 27.7527ZM944.046 35.1609C944.38 35.1712 944.712 35.1082 945.019 34.9761C945.326 34.8441 945.6 34.6463 945.822 34.3968C946.252 33.8408 946.486 33.1574 946.486 32.4541C946.486 31.7508 946.252 31.0675 945.822 30.5114C945.6 30.2652 945.328 30.0704 945.024 29.9407C944.719 29.8109 944.39 29.7493 944.059 29.7602C943.721 29.7496 943.385 29.8125 943.074 29.9444C942.763 30.0763 942.484 30.2742 942.257 30.5243C941.78 31.0562 941.529 31.7531 941.558 32.467C941.534 33.1739 941.78 33.8635 942.244 34.3968C942.472 34.6462 942.751 34.8437 943.062 34.9756C943.373 35.1074 943.708 35.1707 944.046 35.1609Z" fill="#282938"/>
<path d="M960.621 36.1059C959.524 37.0045 958.15 37.4956 956.732 37.4956C955.314 37.4956 953.94 37.0045 952.844 36.1059C951.904 35.1246 951.379 33.8186 951.379 32.4601C951.379 31.1015 951.904 29.7954 952.844 28.8142C953.941 27.9179 955.315 27.4282 956.732 27.4282C958.15 27.4282 959.523 27.9179 960.621 28.8142C961.56 29.7932 962.085 31.0972 962.085 32.4536C962.085 33.81 961.56 35.1139 960.621 36.0929V36.1059ZM954.879 34.3963C955.128 34.6325 955.42 34.817 955.741 34.9393C956.061 35.0616 956.403 35.1192 956.745 35.1086C957.086 35.1174 957.425 35.0591 957.743 34.9369C958.061 34.8145 958.352 34.6309 958.599 34.3963C959.051 33.8648 959.299 33.19 959.299 32.4924C959.299 31.7949 959.051 31.1201 958.599 30.5886C958.352 30.354 958.061 30.1703 957.743 30.048C957.425 29.9258 957.086 29.8674 956.745 29.8762C956.403 29.8657 956.061 29.9233 955.741 30.0455C955.42 30.1678 955.128 30.3524 954.879 30.5886C954.427 31.1201 954.179 31.7949 954.179 32.4924C954.179 33.19 954.427 33.8648 954.879 34.3963Z" fill="#282938"/>
<path d="M966.764 25.5513C966.422 25.851 965.982 26.0161 965.526 26.0161C965.071 26.0161 964.631 25.851 964.289 25.5513C964.133 25.4048 964.01 25.2281 963.925 25.0322C963.841 24.8362 963.797 24.625 963.797 24.4116C963.797 24.1981 963.841 23.9869 963.925 23.791C964.01 23.595 964.133 23.4184 964.289 23.2719C964.635 22.9796 965.073 22.8193 965.526 22.8193C965.98 22.8193 966.418 22.9796 966.764 23.2719C966.92 23.4184 967.043 23.595 967.128 23.791C967.212 23.9869 967.256 24.1981 967.256 24.4116C967.256 24.625 967.212 24.8362 967.128 25.0322C967.043 25.2281 966.92 25.4048 966.764 25.5513ZM967.036 37.4925C966.266 37.5303 965.505 37.3116 964.872 36.8707C964.612 36.6726 964.404 36.4151 964.264 36.12C964.124 35.8249 964.057 35.5005 964.068 35.1741V28.1287C964.062 28.0778 964.068 28.0261 964.084 27.9777C964.101 27.9293 964.128 27.8853 964.165 27.8491C964.201 27.8129 964.245 27.7854 964.293 27.7687C964.342 27.7521 964.393 27.7467 964.444 27.753H966.622C966.868 27.753 966.985 27.8826 966.985 28.1287V34.2417C966.985 34.7338 967.205 34.9799 967.646 34.9799C967.842 34.987 968.039 34.9651 968.229 34.9151C968.488 34.9151 968.631 34.9929 968.644 35.2259L968.838 36.8449C968.847 36.8921 968.846 36.9407 968.835 36.9876C968.824 37.0344 968.803 37.0783 968.774 37.1163C968.744 37.1544 968.707 37.1857 968.665 37.2081C968.622 37.2306 968.575 37.2436 968.527 37.2464C968.046 37.4047 967.543 37.4877 967.036 37.4925Z" fill="#282938"/>
<path d="M976.849 27.4419C977.53 27.4151 978.208 27.5251 978.845 27.7653C979.482 28.0056 980.063 28.3714 980.556 28.8407C981.473 29.8237 981.983 31.1172 981.983 32.4607C981.983 33.804 981.473 35.0977 980.556 36.0806C980.067 36.5541 979.485 36.9233 978.848 37.166C978.211 37.4086 977.531 37.5197 976.849 37.4922C975.879 37.5138 974.928 37.2182 974.141 36.6504V41.3258C974.141 41.5719 974.011 41.6885 973.765 41.6885H971.588C971.538 41.6977 971.487 41.6948 971.438 41.6799C971.39 41.6649 971.346 41.6385 971.31 41.6028C971.275 41.567 971.248 41.5232 971.233 41.4749C971.218 41.4267 971.215 41.3755 971.225 41.3258V30.7057C971.24 30.6019 971.231 30.4959 971.198 30.3962C971.165 30.2965 971.109 30.2059 971.034 30.1317C970.96 30.0575 970.87 30.0016 970.77 29.9686C970.67 29.9356 970.564 29.9264 970.46 29.9415H970.032C969.747 29.9415 969.605 29.838 969.605 29.6307V28.1025C969.598 28.0079 969.624 27.9139 969.678 27.8362C969.732 27.7583 969.812 27.7015 969.903 27.6751C970.351 27.5122 970.825 27.4333 971.302 27.4419C971.778 27.3999 972.255 27.5007 972.673 27.7314C973.091 27.9622 973.431 28.3123 973.648 28.7371C974.066 28.3151 974.565 27.9826 975.115 27.76C975.666 27.5372 976.256 27.429 976.849 27.4419ZM974.828 34.3969C975.059 34.6382 975.336 34.8303 975.644 34.9615C975.951 35.0927 976.282 35.1603 976.616 35.1603C976.951 35.1603 977.282 35.0927 977.589 34.9615C977.896 34.8303 978.174 34.6382 978.405 34.3969C978.892 33.8543 979.148 33.1434 979.118 32.4154C979.152 31.6866 978.895 30.9741 978.405 30.4337C978.174 30.1924 977.896 30.0003 977.589 29.8691C977.282 29.7379 976.951 29.6703 976.616 29.6703C976.282 29.6703 975.951 29.7379 975.644 29.8691C975.336 30.0003 975.059 30.1924 974.828 30.4337C974.356 30.9836 974.111 31.6917 974.141 32.4154C974.115 33.1383 974.36 33.845 974.828 34.3969Z" fill="#282938"/>
<path d="M988.098 37.4921C986.935 37.5399 985.781 37.2618 984.767 36.6891C984.36 36.4443 984.014 36.1111 983.753 35.7142C983.494 35.3174 983.326 34.8672 983.264 34.3968C983.264 34.1377 983.355 34.0082 983.64 34.0082H985.545C985.636 34.0117 985.724 34.0402 985.799 34.0905C985.875 34.1408 985.934 34.2109 985.972 34.2931C986.245 34.9925 986.957 35.3422 988.098 35.3422C988.496 35.3604 988.892 35.2803 989.252 35.109C989.375 35.0531 989.482 34.9645 989.56 34.8527C989.637 34.7409 989.684 34.6102 989.693 34.4745C989.693 34.1377 989.485 33.9046 989.07 33.7491C988.579 33.5855 988.069 33.4769 987.554 33.4254C986.943 33.3562 986.337 33.2481 985.739 33.1016C985.158 32.9702 984.63 32.6679 984.223 32.2339C983.983 31.9387 983.807 31.5976 983.704 31.2313C983.602 30.8652 983.576 30.4819 983.628 30.1054C983.681 29.7288 983.81 29.367 984.008 29.0424C984.206 28.7179 984.469 28.4376 984.78 28.2189C985.715 27.6242 986.81 27.3346 987.916 27.39C988.988 27.3539 990.048 27.6185 990.975 28.1542C991.349 28.3658 991.671 28.6582 991.918 29.0099C992.164 29.3617 992.33 29.764 992.402 30.1875C992.402 30.4465 992.284 30.5761 992.051 30.5761H990.133C990.052 30.5808 989.972 30.5612 989.902 30.5196C989.833 30.478 989.778 30.4164 989.744 30.343C989.616 30.0362 989.374 29.7904 989.07 29.6565C988.726 29.4769 988.343 29.3878 987.955 29.3975C987.575 29.3769 987.196 29.4526 986.854 29.6177C986.733 29.6643 986.63 29.7458 986.556 29.852C986.482 29.9583 986.441 30.0841 986.44 30.2134C986.448 30.3906 986.513 30.5604 986.625 30.6979C986.736 30.8354 986.889 30.9334 987.061 30.9776C987.559 31.165 988.076 31.2953 988.603 31.3662C989.21 31.4458 989.811 31.5583 990.405 31.7029C990.987 31.8342 991.514 32.1364 991.922 32.5706C992.14 32.8098 992.308 33.0897 992.417 33.3942C992.526 33.6987 992.573 34.0219 992.557 34.3449C992.568 34.7926 992.463 35.2356 992.252 35.6305C992.04 36.0256 991.73 36.359 991.351 36.5985C990.383 37.2197 989.248 37.5314 988.098 37.4921Z" fill="#282938"/>
<path d="M1006.26 36.8449C1006.26 36.8908 1006.26 36.9379 1006.25 36.9831C1006.24 37.0283 1006.22 37.0708 1006.19 37.1083C1006.16 37.1457 1006.13 37.1771 1006.09 37.2009C1006.05 37.2245 1006.01 37.24 1005.96 37.2463C1005.49 37.4007 1004.99 37.4836 1004.49 37.4924C1004 37.5434 1003.5 37.4665 1003.05 37.269C1002.6 37.0716 1002.2 36.7605 1001.9 36.3657C1000.99 37.1522 999.803 37.5558 998.598 37.4924C998.037 37.5182 997.478 37.4266 996.956 37.2237C996.434 37.0206 995.96 36.7108 995.564 36.3139C995.172 35.8979 994.867 35.4071 994.669 34.8708C994.471 34.3344 994.384 33.7636 994.411 33.1925V28.1286C994.411 27.8825 994.527 27.7529 994.774 27.7529H996.952C997.197 27.7529 997.314 27.8825 997.314 28.1286V32.804C997.291 33.3865 997.49 33.9562 997.872 34.3971C998.062 34.599 998.294 34.7578 998.55 34.8628C998.808 34.9678 999.084 35.0165 999.362 35.0058C999.646 35.0182 999.93 34.9742 1000.2 34.8764C1000.46 34.7786 1000.71 34.6289 1000.92 34.4359C1001.11 34.2325 1001.27 33.9908 1001.37 33.7257C1001.47 33.4606 1001.51 33.1778 1001.5 32.8947V28.1286C1001.5 27.8825 1001.62 27.7529 1001.86 27.7529H1004.07C1004.31 27.7529 1004.43 27.8825 1004.43 28.1286V34.2287C1004.43 34.7338 1004.65 34.9799 1005.08 34.9799C1005.28 34.9876 1005.48 34.9658 1005.67 34.915C1005.72 34.9013 1005.77 34.8989 1005.82 34.9079C1005.87 34.9169 1005.92 34.937 1005.96 34.967C1006 34.9969 1006.04 35.0357 1006.06 35.0806C1006.09 35.1254 1006.1 35.1751 1006.1 35.226L1006.26 36.8449Z" fill="#282938"/>
<path d="M1026.85 36.8452C1026.86 36.8915 1026.86 36.9399 1026.85 36.9868C1026.84 37.0336 1026.82 37.0778 1026.8 37.1162C1026.77 37.1546 1026.73 37.1862 1026.69 37.2087C1026.65 37.2313 1026.6 37.2442 1026.55 37.2467C1026.07 37.4032 1025.57 37.4862 1025.06 37.4927C1024.29 37.5324 1023.53 37.3137 1022.9 36.8711C1022.62 36.6814 1022.4 36.4274 1022.25 36.1314C1022.1 35.8355 1022.02 35.5068 1022.03 35.1744V32.1308C1022.06 31.5501 1021.86 30.9807 1021.48 30.5378C1021.3 30.3354 1021.08 30.1758 1020.83 30.0705C1020.58 29.9653 1020.31 29.917 1020.03 29.9291C1019.79 29.9198 1019.54 29.9664 1019.32 30.0651C1019.09 30.1638 1018.9 30.3122 1018.74 30.499C1018.39 30.933 1018.22 31.4753 1018.24 32.0273V36.8063C1018.24 37.0524 1018.13 37.1819 1017.88 37.1819H1015.69C1015.64 37.1882 1015.59 37.1828 1015.54 37.1662C1015.49 37.1496 1015.45 37.122 1015.41 37.0859C1015.38 37.0496 1015.35 37.0056 1015.33 36.9571C1015.31 36.9087 1015.31 36.8571 1015.32 36.8063V32.1308C1015.34 31.5565 1015.16 30.991 1014.81 30.5378C1014.65 30.3475 1014.45 30.1942 1014.23 30.089C1014.01 29.9838 1013.76 29.9292 1013.51 29.9291C1013.25 29.9185 1012.99 29.9637 1012.74 30.0619C1012.49 30.1601 1012.27 30.3091 1012.09 30.499C1011.72 30.9192 1011.53 31.4679 1011.56 32.0273V36.8063C1011.56 36.8571 1011.56 36.9087 1011.54 36.9571C1011.52 37.0056 1011.5 37.0496 1011.46 37.0859C1011.42 37.122 1011.38 37.1496 1011.33 37.1662C1011.28 37.1828 1011.23 37.1882 1011.18 37.1819H1009.07C1008.82 37.1819 1008.71 37.0524 1008.71 36.8063V30.7062C1008.72 30.6024 1008.71 30.4964 1008.68 30.3966C1008.65 30.297 1008.59 30.2064 1008.52 30.1322C1008.44 30.058 1008.35 30.0021 1008.25 29.9691C1008.15 29.936 1008.04 29.9269 1007.94 29.9421H1007.51C1007.23 29.9421 1007.08 29.8385 1007.08 29.6312V28.103C1007.08 28.0084 1007.1 27.9144 1007.16 27.8366C1007.21 27.7589 1007.29 27.702 1007.38 27.6756C1007.83 27.5127 1008.31 27.4337 1008.78 27.4424C1009.24 27.4035 1009.7 27.4946 1010.11 27.7055C1010.52 27.9163 1010.86 28.2382 1011.09 28.634C1011.53 28.2198 1012.05 27.9003 1012.61 27.6953C1013.18 27.4903 1013.78 27.4042 1014.38 27.4424C1014.97 27.414 1015.55 27.5234 1016.08 27.762C1016.62 28.0005 1017.09 28.3613 1017.45 28.8153C1017.88 28.3495 1018.41 27.9847 1019 27.7472C1019.58 27.5098 1020.22 27.4057 1020.85 27.4424C1021.42 27.416 1021.98 27.5071 1022.51 27.71C1023.04 27.9128 1023.52 28.223 1023.92 28.621C1024.32 29.0361 1024.62 29.5268 1024.82 30.0633C1025.02 30.5999 1025.1 31.1711 1025.08 31.7423V34.2419C1025.08 34.7341 1025.29 34.9802 1025.71 34.9802C1025.91 34.9896 1026.11 34.9677 1026.31 34.9154C1026.57 34.9154 1026.72 35.019 1026.73 35.2263L1026.85 36.8452Z" fill="#282938"/>
<path d="M874.873 26.0697C875.829 22.2293 878.044 18.8188 881.164 16.3815C884.284 13.9442 888.131 12.6201 892.092 12.6201C896.052 12.6201 899.899 13.9442 903.019 16.3815C906.139 18.8188 908.354 22.2293 909.31 26.0697H907.755C905.131 26.0311 902.561 26.8147 900.406 28.3104C900.281 28.4004 900.152 28.4825 900.017 28.5564H899.836C899.701 28.4825 899.571 28.4004 899.447 28.3104C897.272 26.8493 894.712 26.069 892.092 26.069C889.471 26.069 886.911 26.8493 884.736 28.3104C884.612 28.4004 884.482 28.4825 884.347 28.5564H884.166C884.031 28.4825 883.902 28.4004 883.777 28.3104C881.622 26.8147 879.052 26.0311 876.428 26.0697H874.873ZM904.955 34.1903C905.753 33.569 906.743 33.2439 907.755 33.2708H909.841V29.1133H907.755C905.973 29.0918 904.232 29.646 902.791 30.6934C901.98 31.2909 900.999 31.6132 899.991 31.6132C898.984 31.6132 898.003 31.2909 897.192 30.6934C895.714 29.6656 893.957 29.1146 892.156 29.1146C890.356 29.1146 888.599 29.6656 887.121 30.6934C886.31 31.2909 885.329 31.6132 884.322 31.6132C883.314 31.6132 882.333 31.2909 881.522 30.6934C880.063 29.6326 878.297 29.0777 876.493 29.1133H874.342V33.2708H876.428C877.44 33.2439 878.43 33.569 879.228 34.1903C880.703 35.2188 882.458 35.7703 884.257 35.7703C886.055 35.7703 887.811 35.2188 889.286 34.1903C890.085 33.5708 891.074 33.2461 892.085 33.2708C893.097 33.2418 894.087 33.567 894.885 34.1903C896.362 35.2181 898.119 35.7691 899.92 35.7691C901.72 35.7691 903.477 35.2181 904.955 34.1903ZM904.955 41.6244C905.753 41.0031 906.743 40.678 907.755 40.7049H909.841V36.5475H907.755C905.973 36.5259 904.232 37.0801 902.791 38.1275C901.98 38.725 900.999 39.0473 899.991 39.0473C898.984 39.0473 898.003 38.725 897.192 38.1275C895.714 37.0996 893.957 36.5487 892.156 36.5487C890.356 36.5487 888.599 37.0996 887.121 38.1275C886.31 38.725 885.329 39.0473 884.322 39.0473C883.314 39.0473 882.333 38.725 881.522 38.1275C880.063 37.0667 878.297 36.5118 876.493 36.5475H874.342V40.7049H876.428C877.44 40.678 878.43 41.0031 879.228 41.6244C880.703 42.653 882.458 43.2044 884.257 43.2044C886.055 43.2044 887.811 42.653 889.286 41.6244C890.085 41.005 891.074 40.6802 892.085 40.7049C893.097 40.6759 894.087 41.0011 894.885 41.6244C896.362 42.6522 898.119 43.2033 899.92 43.2033C901.72 43.2033 903.477 42.6522 904.955 41.6244Z" fill="#282938"/>
</g>
<g clip-path="url(#clip4_571_691)">
<path d="M1140 21.9H1143.42V35.7674H1140V21.9ZM1144.78 30.5512C1144.78 27.1163 1146.91 25.0575 1150.11 25.0575C1153.31 25.0575 1155.44 27.1163 1155.44 30.5512C1155.44 33.9859 1153.38 36.0661 1150.11 36.0661C1146.84 36.0661 1144.78 34.0606 1144.78 30.5512ZM1152.05 30.5512C1152.05 28.6631 1151.31 27.5537 1150.14 27.5537C1148.97 27.5537 1148.25 28.6204 1148.25 30.5512C1148.25 32.4819 1148.97 33.5379 1150.14 33.5379C1151.31 33.5379 1152.07 32.4819 1152.07 30.5618L1152.05 30.5512ZM1156.8 36.4821H1160.1C1160.25 36.8382 1160.52 37.1351 1160.85 37.3277C1161.18 37.5203 1161.57 37.598 1161.96 37.5488C1163.27 37.5488 1163.95 36.8448 1163.95 35.7994V33.8793H1163.96C1163.68 34.4772 1163.22 34.9755 1162.65 35.3087C1162.08 35.6419 1161.42 35.7944 1160.76 35.746C1158.26 35.746 1156.6 33.8366 1156.6 30.5512C1156.6 27.2656 1158.18 25.2175 1160.86 25.2175C1161.53 25.1813 1162.2 25.3558 1162.78 25.7169C1163.35 26.078 1163.8 26.6079 1164.05 27.2336H1163.96V25.3029H1167.35V35.6927C1167.35 38.1995 1165.13 39.7676 1161.87 39.7676C1158.91 39.7569 1157.01 38.4022 1156.82 36.4928L1156.8 36.4821ZM1163.96 30.5512C1163.96 28.8764 1163.19 27.8203 1161.98 27.8203C1160.76 27.8203 1160.02 28.8871 1160.02 30.5512C1160.02 32.2152 1160.75 33.1966 1161.98 33.1966C1163.2 33.1966 1163.96 32.2899 1163.96 30.5512ZM1168.7 30.5512C1168.7 27.1163 1170.83 25.0575 1174.03 25.0575C1177.22 25.0575 1179.35 27.1163 1179.35 30.5512C1179.35 33.9859 1177.29 36.0661 1174.03 36.0661C1170.77 36.0661 1168.72 34.0606 1168.72 30.5512H1168.7ZM1175.96 30.5512C1175.96 28.6631 1175.22 27.5537 1174.06 27.5537C1172.9 27.5537 1172.16 28.6204 1172.16 30.5512C1172.16 32.4819 1172.89 33.5379 1174.06 33.5379C1175.23 33.5379 1175.99 32.4819 1175.99 30.5618L1175.96 30.5512ZM1180.74 22.7747C1180.72 22.4259 1180.81 22.0807 1181 21.7833C1181.18 21.486 1181.45 21.2502 1181.76 21.1063C1182.08 20.9624 1182.43 20.9169 1182.78 20.9757C1183.12 21.0345 1183.44 21.195 1183.69 21.4364C1183.94 21.6778 1184.12 21.9891 1184.19 22.3304C1184.26 22.6716 1184.23 23.0271 1184.1 23.3512C1183.97 23.6752 1183.75 23.9529 1183.46 24.1487C1183.17 24.3444 1182.83 24.4492 1182.48 24.4495C1182.26 24.4552 1182.04 24.4165 1181.83 24.3357C1181.62 24.2548 1181.43 24.1335 1181.27 23.9787C1181.11 23.8238 1180.99 23.6387 1180.9 23.4339C1180.81 23.229 1180.76 23.0086 1180.76 22.7854L1180.74 22.7747ZM1180.74 25.2922H1184.2V35.81H1180.79L1180.74 25.2922ZM1196.65 30.5512C1196.65 33.9753 1195.12 35.9594 1192.51 35.9594C1191.84 36.0007 1191.18 35.8356 1190.6 35.4865C1190.03 35.1374 1189.58 34.6211 1189.31 34.0073H1189.25V39.1916H1185.83V25.3242H1189.23V27.2016H1189.29C1189.55 26.5758 1190 26.0453 1190.57 25.6826C1191.14 25.3199 1191.81 25.1427 1192.49 25.1749C1195.17 25.1535 1196.72 27.127 1196.72 30.5618L1196.65 30.5512ZM1193.17 30.5512C1193.17 28.8871 1192.39 27.8097 1191.19 27.8097C1189.98 27.8097 1189.23 28.8764 1189.22 30.5512C1189.21 32.2259 1189.98 33.2819 1191.19 33.2819C1192.39 33.2819 1193.23 32.2899 1193.23 30.5618L1193.17 30.5512ZM1202.49 25.0468C1205.36 25.0468 1207.14 26.4016 1207.16 28.5777H1204.04C1204.04 27.8203 1203.41 27.351 1202.47 27.351C1201.53 27.351 1201.08 27.7137 1201.08 28.2577C1201.08 28.8017 1201.48 28.9724 1202.27 29.1324L1204.46 29.5804C1206.59 30.0285 1207.44 30.8819 1207.44 32.4713C1207.44 34.6046 1205.47 36.0554 1202.54 36.0554C1199.61 36.0554 1197.71 34.6473 1197.57 32.5033H1200.88C1200.98 33.2819 1201.6 33.7406 1202.6 33.7406C1203.6 33.7406 1204.07 33.4206 1204.07 32.8552C1204.07 32.2899 1203.75 32.1939 1202.93 32.0232L1200.95 31.6072C1198.89 31.1699 1197.81 30.0925 1197.81 28.4817C1197.88 26.3909 1199.67 25.0575 1202.55 25.0575L1202.49 25.0468ZM1218.9 35.7994H1215.58V33.8259H1215.52C1215.33 34.4842 1214.93 35.0595 1214.38 35.457C1213.82 35.8546 1213.14 36.0505 1212.46 36.0127C1211.95 36.0296 1211.44 35.9371 1210.96 35.7416C1210.48 35.5459 1210.05 35.2516 1209.7 34.8779C1209.34 34.5042 1209.07 34.0595 1208.9 33.5731C1208.73 33.0866 1208.66 32.5694 1208.7 32.0552V25.3029H1212.12V31.3192C1212.12 32.5566 1212.77 33.2286 1213.84 33.2286C1214.09 33.2267 1214.33 33.1712 1214.56 33.0657C1214.79 32.9602 1214.99 32.8073 1215.15 32.6172C1215.31 32.427 1215.43 32.2043 1215.5 31.9638C1215.57 31.7233 1215.59 31.4707 1215.55 31.2232V25.3029H1218.96L1218.9 35.7994ZM1220.55 25.2922H1223.87V27.319H1223.95C1224.13 26.6697 1224.52 26.0997 1225.07 25.6983C1225.61 25.2968 1226.27 25.0865 1226.94 25.1002C1227.62 25.0414 1228.29 25.2371 1228.83 25.6495C1229.37 26.0618 1229.74 26.6609 1229.86 27.3296H1230.01C1230.22 26.6574 1230.65 26.0743 1231.23 25.6711C1231.81 25.2679 1232.5 25.0672 1233.2 25.1002C1233.67 25.0824 1234.14 25.1636 1234.57 25.3387C1235.01 25.5137 1235.4 25.7785 1235.72 26.1159C1236.05 26.4532 1236.3 26.8554 1236.46 27.2963C1236.62 27.737 1236.68 28.2064 1236.65 28.6737V35.81H1233.2V29.5484C1233.2 28.4817 1232.7 27.8843 1231.73 27.8843C1231.52 27.8808 1231.31 27.9239 1231.11 28.0106C1230.91 28.0973 1230.74 28.2256 1230.59 28.3867C1230.45 28.5478 1230.35 28.7379 1230.28 28.9439C1230.22 29.15 1230.2 29.3671 1230.23 29.5804V35.81H1226.97V29.5164C1226.97 28.4497 1226.45 27.8843 1225.51 27.8843C1225.3 27.8826 1225.08 27.9274 1224.88 28.0158C1224.68 28.1042 1224.51 28.234 1224.36 28.3967C1224.22 28.5594 1224.11 28.7511 1224.05 28.9589C1223.98 29.1667 1223.96 29.3859 1223.99 29.6018V35.81H1220.57L1220.55 25.2922Z" fill="#282938"/>
<path d="M1133.24 22.8063C1133.24 20.6832 1132.6 18.6096 1131.4 16.857C1130.2 15.1044 1128.5 13.7547 1126.53 12.9845C1124.55 12.2143 1122.39 12.0597 1120.33 12.5407C1118.26 13.0218 1116.39 14.1162 1114.96 15.6806H1101.66V43.778H1129.73V30.6467C1130.83 29.6599 1131.71 28.4517 1132.32 27.1007C1132.92 25.7497 1133.24 24.2865 1133.24 22.8063ZM1127.83 22.8063C1127.84 23.8236 1127.54 24.8188 1126.97 25.6658C1126.41 26.5127 1125.61 27.1733 1124.67 27.5641C1123.73 27.9549 1122.7 28.0583 1121.7 27.861C1120.71 27.6639 1119.79 27.1751 1119.07 26.4564C1118.35 25.7378 1117.86 24.8216 1117.66 23.824C1117.47 22.8263 1117.57 21.792 1117.96 20.8519C1118.34 19.9117 1119 19.1081 1119.85 18.5426C1120.69 17.9772 1121.68 17.6754 1122.7 17.6754C1124.06 17.6754 1125.36 18.2156 1126.33 19.1775C1127.29 20.1395 1127.83 21.4445 1127.83 22.8063ZM1124.33 38.3698H1107.06V21.0889H1112.32C1112.22 21.6558 1112.17 22.2303 1112.16 22.8063C1112.17 25.6034 1113.28 28.2852 1115.25 30.2631C1117.23 32.2409 1119.91 33.3533 1122.7 33.3562C1123.25 33.3532 1123.79 33.3069 1124.33 33.2175V38.3698Z" fill="#282938"/>
</g>
</g>
<path opacity="0.6" d="M3.08239 15H4.35511L6.60227 6.88636H6.68182L8.92898 15H10.2017L12.9858 4.81818H11.733L9.60511 13.1108H9.50568L7.33807 4.81818H5.94602L3.77841 13.1108H3.67898L1.55114 4.81818H0.298295L3.08239 15ZM16.8537 15.1591C18.4048 15.1591 19.5384 14.3835 19.8963 13.2301L18.7628 12.9119C18.4645 13.7074 17.7734 14.1051 16.8537 14.1051C15.4766 14.1051 14.527 13.2152 14.4723 11.5795H20.0156V11.0824C20.0156 8.23864 18.3253 7.2642 16.7344 7.2642C14.6662 7.2642 13.294 8.89489 13.294 11.2415C13.294 13.5881 14.6463 15.1591 16.8537 15.1591ZM14.4723 10.5653C14.5518 9.37713 15.392 8.31818 16.7344 8.31818C18.0071 8.31818 18.8224 9.27273 18.8224 10.5653H14.4723ZM27.9851 15.179C29.3175 15.179 30.0135 14.4631 30.2521 13.9659H30.3118V15H31.4851V9.96875C31.4851 7.54261 29.6357 7.2642 28.6612 7.2642C27.5078 7.2642 26.1953 7.66193 25.5987 9.05398L26.7124 9.4517C26.9709 8.89489 27.5824 8.2983 28.701 8.2983C29.7798 8.2983 30.3118 8.87003 30.3118 9.84943V9.8892C30.3118 10.456 29.7351 10.4062 28.343 10.5852C26.9261 10.7692 25.38 11.0824 25.38 12.8324C25.38 14.3239 26.5334 15.179 27.9851 15.179ZM28.1641 14.125C27.2294 14.125 26.5533 13.7074 26.5533 12.892C26.5533 11.9972 27.3686 11.7188 28.2834 11.5994C28.7805 11.5398 30.1129 11.4006 30.3118 11.1619V12.2358C30.3118 13.1903 29.5561 14.125 28.1641 14.125ZM33.6266 15H34.7999V10.1676C34.7999 9.13352 35.6152 8.37784 36.7289 8.37784C37.0421 8.37784 37.3652 8.4375 37.4448 8.45739V7.2642C37.3105 7.25426 37.0023 7.24432 36.8283 7.24432C35.9135 7.24432 35.1181 7.76136 34.8397 8.51705H34.7601V7.36364H33.6266V15ZM41.8049 15.1591C43.356 15.1591 44.4895 14.3835 44.8475 13.2301L43.714 12.9119C43.4157 13.7074 42.7246 14.1051 41.8049 14.1051C40.4277 14.1051 39.4782 13.2152 39.4235 11.5795H44.9668V11.0824C44.9668 8.23864 43.2765 7.2642 41.6855 7.2642C39.6174 7.2642 38.2452 8.89489 38.2452 11.2415C38.2452 13.5881 39.5975 15.1591 41.8049 15.1591ZM39.4235 10.5653C39.503 9.37713 40.3432 8.31818 41.6855 8.31818C42.9583 8.31818 43.7736 9.27273 43.7736 10.5653H39.4235Z" fill="#6D6E76"/>
<path d="M11.7656 35.1875V38.1172H5.60156V44H2.34375V28.2969H13.0547V31.2266H5.60156V35.1875H11.7656ZM21.8906 31.8594C23.0469 31.8594 24.0391 32.1094 24.8672 32.6094C25.7109 33.1094 26.3516 33.8047 26.7891 34.6953C27.2422 35.5703 27.4688 36.5859 27.4688 37.7422V39.0078H18.8906C19.0469 39.8047 19.4375 40.4453 20.0625 40.9297C20.6875 41.4141 21.4531 41.6562 22.3594 41.6562C23.2188 41.6562 24 41.4844 24.7031 41.1406C25.4062 40.7969 25.9688 40.4453 26.3906 40.0859L26.3672 42.8516C25.9922 43.1797 25.4297 43.5156 24.6797 43.8594C23.9453 44.1875 23.1328 44.3516 22.2422 44.3516C21.0703 44.3516 20 44.0859 19.0312 43.5547C18.0781 43.0234 17.3125 42.2969 16.7344 41.375C16.1719 40.4531 15.8906 39.3984 15.8906 38.2109C15.8906 37.0547 16.1484 36 16.6641 35.0469C17.1797 34.0938 17.8906 33.3281 18.7969 32.75C19.7031 32.1562 20.7344 31.8594 21.8906 31.8594ZM21.8203 34.4609C21.0859 34.4609 20.4688 34.6875 19.9688 35.1406C19.4688 35.5938 19.125 36.2031 18.9375 36.9688H24.6094C24.5469 36.125 24.2344 35.5 23.6719 35.0938C23.1094 34.6719 22.4922 34.4609 21.8203 34.4609ZM34.875 31.8594C35.5156 31.8594 36.1641 32.0078 36.8203 32.3047C37.4766 32.6016 38.0234 33 38.4609 33.5V32.1641H41.4375V44H38.4609V42.0078C38.1172 42.6484 37.6172 43.2031 36.9609 43.6719C36.3047 44.125 35.5391 44.3516 34.6641 44.3516C33.7109 44.3516 32.8281 44.1094 32.0156 43.625C31.2188 43.1406 30.5781 42.4375 30.0938 41.5156C29.6094 40.5938 29.3672 39.4766 29.3672 38.1641C29.3672 36.8516 29.6094 35.7266 30.0938 34.7891C30.5938 33.8516 31.2578 33.1328 32.0859 32.6328C32.9297 32.1172 33.8594 31.8594 34.875 31.8594ZM35.4844 34.7656C34.8594 34.7656 34.3203 34.9297 33.8672 35.2578C33.4297 35.5703 33.0859 35.9844 32.8359 36.5C32.5859 37.0156 32.4609 37.5703 32.4609 38.1641C32.4609 39.0547 32.7266 39.8125 33.2578 40.4375C33.8047 41.0625 34.5234 41.375 35.4141 41.375C35.9453 41.375 36.4375 41.2344 36.8906 40.9531C37.3594 40.6719 37.7344 40.2812 38.0156 39.7812C38.3125 39.2656 38.4609 38.6484 38.4609 37.9297V36.2422C38.0391 35.7891 37.5781 35.4297 37.0781 35.1641C36.5938 34.8984 36.0625 34.7656 35.4844 34.7656ZM49.3828 28.7188V32.1641H52.6641V34.6484H49.3828V39.7578C49.3828 40.2891 49.5 40.7109 49.7344 41.0234C49.9844 41.3203 50.3516 41.4688 50.8359 41.4688C51.2578 41.4688 51.6172 41.4219 51.9141 41.3281C52.2266 41.2344 52.5156 41.1016 52.7812 40.9297V43.2969C52.4844 43.5938 52.1094 43.8438 51.6562 44.0469C51.2188 44.25 50.6641 44.3516 49.9922 44.3516C48.9297 44.3516 48.0625 44.0156 47.3906 43.3438C46.7344 42.6562 46.4062 41.7188 46.4062 40.5312V34.6484H44.2734V33.125C45.0234 32.8594 45.7109 32.3594 46.3359 31.625C46.9766 30.8906 47.4844 29.9219 47.8594 28.7188H49.3828ZM66.2812 32.1641V39.2188C66.2812 40.2656 66.0469 41.1719 65.5781 41.9375C65.1094 42.6875 64.4688 43.2656 63.6562 43.6719C62.8594 44.0781 61.9531 44.2812 60.9375 44.2812C59.9062 44.2812 58.9844 44.0781 58.1719 43.6719C57.375 43.2656 56.7422 42.6875 56.2734 41.9375C55.8203 41.1719 55.5938 40.2656 55.5938 39.2188V32.1641H58.5938L58.6172 38.6797C58.6172 39.6016 58.8281 40.2891 59.25 40.7422C59.6719 41.1953 60.2344 41.4219 60.9375 41.4219C61.625 41.4219 62.1797 41.1953 62.6016 40.7422C63.0391 40.2891 63.2578 39.6016 63.2578 38.6797V32.1641H66.2812ZM77.1328 35.4922C76.6328 35.2109 76.1094 35.0703 75.5625 35.0703C74.875 35.0703 74.3047 35.2969 73.8516 35.75C73.3984 36.1875 73 36.7344 72.6562 37.3906V44H69.6797V32.1641H72.6562V34.3906C73.0625 33.6875 73.5391 33.1016 74.0859 32.6328C74.6484 32.1641 75.2812 31.9297 75.9844 31.9297C76.4062 31.9297 76.7891 32 77.1328 32.1406V35.4922ZM84.6094 31.8594C85.7656 31.8594 86.7578 32.1094 87.5859 32.6094C88.4297 33.1094 89.0703 33.8047 89.5078 34.6953C89.9609 35.5703 90.1875 36.5859 90.1875 37.7422V39.0078H81.6094C81.7656 39.8047 82.1562 40.4453 82.7812 40.9297C83.4062 41.4141 84.1719 41.6562 85.0781 41.6562C85.9375 41.6562 86.7188 41.4844 87.4219 41.1406C88.125 40.7969 88.6875 40.4453 89.1094 40.0859L89.0859 42.8516C88.7109 43.1797 88.1484 43.5156 87.3984 43.8594C86.6641 44.1875 85.8516 44.3516 84.9609 44.3516C83.7891 44.3516 82.7188 44.0859 81.75 43.5547C80.7969 43.0234 80.0312 42.2969 79.4531 41.375C78.8906 40.4531 78.6094 39.3984 78.6094 38.2109C78.6094 37.0547 78.8672 36 79.3828 35.0469C79.8984 34.0938 80.6094 33.3281 81.5156 32.75C82.4219 32.1562 83.4531 31.8594 84.6094 31.8594ZM84.5391 34.4609C83.8047 34.4609 83.1875 34.6875 82.6875 35.1406C82.1875 35.5938 81.8438 36.2031 81.6562 36.9688H87.3281C87.2656 36.125 86.9531 35.5 86.3906 35.0938C85.8281 34.6719 85.2109 34.4609 84.5391 34.4609ZM104.156 27.125V44H101.18V42.0078C100.836 42.6484 100.336 43.2031 99.6797 43.6719C99.0234 44.125 98.2578 44.3516 97.3828 44.3516C96.4297 44.3516 95.5469 44.1094 94.7344 43.625C93.9375 43.1406 93.2969 42.4375 92.8125 41.5156C92.3281 40.5938 92.0859 39.4766 92.0859 38.1641C92.0859 36.8516 92.3281 35.7266 92.8125 34.7891C93.3125 33.8516 93.9766 33.1328 94.8047 32.6328C95.6484 32.1172 96.5781 31.8594 97.5938 31.8594C98.2344 31.8594 98.8828 32.0078 99.5391 32.3047C100.195 32.6016 100.742 33 101.18 33.5V27.125H104.156ZM98.2031 34.7891C97.5781 34.7891 97.0391 34.9531 96.5859 35.2812C96.1484 35.5938 95.8047 36.0078 95.5547 36.5234C95.3047 37.0234 95.1797 37.5703 95.1797 38.1641C95.1797 39.0547 95.4453 39.8125 95.9766 40.4375C96.5234 41.0625 97.2422 41.375 98.1328 41.375C98.6641 41.375 99.1562 41.2344 99.6094 40.9531C100.078 40.6719 100.453 40.2812 100.734 39.7812C101.031 39.2656 101.18 38.6484 101.18 37.9297V36.2422C100.758 35.7891 100.297 35.4375 99.7969 35.1875C99.3125 34.9219 98.7812 34.7891 98.2031 34.7891ZM117.328 26C117.891 26 118.375 26.2031 118.781 26.6094C119.188 27 119.391 27.4688 119.391 28.0156C119.391 28.5469 119.188 29.0156 118.781 29.4219C118.375 29.8281 117.891 30.0312 117.328 30.0312C116.766 30.0312 116.281 29.8281 115.875 29.4219C115.484 29.0156 115.289 28.5469 115.289 28.0156C115.289 27.4688 115.484 27 115.875 26.6094C116.281 26.2031 116.766 26 117.328 26ZM119.062 32.1641V44H116.086V34.6953H114.188V32.1641H119.062ZM125.789 32.1641V33.8516C126.148 33.3672 126.633 32.9141 127.242 32.4922C127.867 32.0703 128.578 31.8594 129.375 31.8594C130.578 31.8594 131.586 32.2656 132.398 33.0781C133.211 33.8906 133.617 35.1094 133.617 36.7344V44H130.641L130.617 37.1328C130.617 36.3359 130.422 35.7422 130.031 35.3516C129.656 34.9609 129.133 34.7656 128.461 34.7656C127.93 34.7656 127.43 34.9375 126.961 35.2812C126.508 35.625 126.117 36.0312 125.789 36.5V44H122.812V32.1641H125.789Z" fill="#6D6E76"/>
<defs>
<clipPath id="clip0_571_691">
<rect width="160" height="32" fill="white" transform="translate(222 12)"/>
</clipPath>
<clipPath id="clip1_571_691">
<rect width="136" height="32" fill="white" transform="translate(457 12)"/>
</clipPath>
<clipPath id="clip2_571_691">
<rect width="135" height="32" fill="white" transform="translate(666 12)"/>
</clipPath>
<clipPath id="clip3_571_691">
<rect width="153" height="32" fill="white" transform="translate(874 12)"/>
</clipPath>
<clipPath id="clip4_571_691">
<rect width="136" height="32" fill="white" transform="translate(1101 12)"/>
</clipPath>
</defs>
</svg>
